<?xml version="1.0" standalone="yes"?>
<svg xmlns="http://www.w3.org/2000/svg" width="212" height="211">
<path style="fill:#122476; stroke:none;" d="M0 0L0 17L26 1L0 0z"/>
<path style="fill:#1732a3; stroke:none;" d="M0 17L0 26C12.3735 25.3727 19.7869 8.13577 29 1C18.3711 -1.07397 10.0948 14.7733 0 17z"/>
<path style="fill:#2452fd; stroke:none;" d="M7 30L14 26L14 30L17 31L15 33C21.065 32.6761 25.6598 22.1964 30.0033 18.0628C38.7752 9.71484 50.256 3.82161 62 1C37.6517 -8.09932 14.3567 6.38756 7 30z"/>
<path style="fill:#5887fd; stroke:none;" d="M20 31C30.0169 23.851 38.731 17.158 51 14.2531C61.8258 11.6899 73.1372 13.4546 83.8035 10.737C91.6147 8.74681 99.0421 3.53525 107 1C100.531 -1.4175 91.8591 0 85 0C61.788 0 28.9559 4.91571 20 31z"/>
<path style="fill:#63a6fd; stroke:none;" d="M86 11C101.96 10.7819 117.206 6.72021 132 1C119.477 -3.68004 94.5262 0.126343 86 11z"/>
<path style="fill:#0b1131; stroke:none;" d="M1 156L7 156L6 159L17 161L19 170L34.3974 154L35.0271 137L35 106C29.7426 106 23.2827 104.983 18.1964 106.408C15.4348 107.182 13.1137 110.2 10.0646 109.747C5.4862 109.067 5.13318 103.066 9.10918 101.251C12.8896 99.5248 15.7524 103.668 19.1147 104.592C23.9573 105.923 30.0033 105 35 105C35 84.381 31.013 59.6189 48.0279 44.2243C60.8299 32.6414 75.9603 34 92 34C121.444 34 162.653 25.6404 177 59L190 48C186.482 51.5177 181.24 55.3301 179.268 60C177.051 65.2507 180 76.0576 180 82C180 104.048 185.345 134.483 176.057 155C170.102 168.155 157.865 175.437 144 177.54C139.189 178.27 133.586 177.012 129 178.714C120.776 181.766 114.101 190.928 107 196L107 178C88.1773 178 58.8534 171.48 47 190C54.6364 191.767 61.9804 191.176 66 199L90 199L90 200L69.1418 200.412L54 207L54 208C71.0945 215.855 93.3196 209.897 111 207.443C128.325 205.038 145.616 207.569 162 200.117C180.985 191.481 189.255 172.686 199.62 156C203.161 150.3 209.89 144.525 211.591 138C214.086 128.43 212 115.882 212 106C207.509 106.492 205.182 110.811 200.981 111.182C189.337 112.211 198.738 89.1982 207 105L212 105L212 0C186.924 0 158.75 -3.63318 134 0.266327C120.399 2.40919 108.104 9.66341 94 10.8956C69.177 13.0642 41.3494 9.77615 22.0628 29.0628C-0.504946 51.6305 -0.000313818 82.7171 0 112C0.000147457 125.76 -2.61463 142.713 1 156z"/>
<path style="fill:#434b79; stroke:none;" d="M190 1L190 3L192 1L190 1z"/>
<path style="fill:#3b476f; stroke:none;" d="M179 15L180 15L190 3C184.871 5.57721 180.774 9.47099 179 15z"/>
<path style="fill:#778dd6; stroke:none;" d="M208 7L208 9L210 9L210 7L208 7z"/>
<path style="fill:#3960a3; stroke:none;" d="M102.667 9.33333L103.333 9.66667L102.667 9.33333z"/>
<path style="fill:#415a9c; stroke:none;" d="M93 10L93 11L98 11L93 10z"/>
<path style="fill:#4267b5; stroke:none;" d="M79 11L79 12L88 12L79 11z"/>
<path style="fill:#455aab; stroke:none;" d="M61 12L61 13L67 13L61 12z"/>
<path style="fill:#7badf4; stroke:none;" d="M174.728 14.1872C172.12 16.3369 175.698 20.5775 178.223 18.1961C180.662 15.8965 177.303 12.0644 174.728 14.1872z"/>
<path style="fill:#87b7f7; stroke:none;" d="M119 16L119 20L122 20L122 16L119 16z"/>
<path style="fill:#1f41c6; stroke:none;" d="M10 20L0 26L0 43L1 43L10 20z"/>
<path style="fill:#7995df; stroke:none;" d="M146 20L145 21L145 22L146 23L147 23L148 22L148 21L146 20z"/>
<path style="fill:#3090fe; stroke:none;" d="M13 26C10.59 29.7328 6.30245 31.039 4.02508 35.041C-1.93942 45.5225 0 58.391 0 70L1 70L18 34L15 33L17 31L14 30L13 26z"/>
<path style="fill:#3e7f91; stroke:none;" d="M196 30L196 31L200 31L196 30z"/>
<path style="fill:#83a9fa; stroke:none;" d="M194.157 32.1505C185.478 37.0943 193.182 50.477 201.899 45.7109C210.8 40.8442 203.291 26.9468 194.157 32.1505z"/>
<path style="fill:#255bfb; stroke:none;" d="M196.1 32.8831C189.104 35.5468 192.412 47.4758 199.959 45.0646C208.086 42.4681 204.181 29.8065 196.1 32.8831z"/>
<path style="fill:#4c8598; stroke:none;" d="M66.6667 34.3333L67.3333 34.6667L66.6667 34.3333z"/>
<path style="fill:#b1efff; stroke:none;" d="M107 177L107 196L115 189L108 194L108 177L127 177L116 188C121.691 185.303 125.936 179.035 132 177.412C148.596 172.971 161.689 178.193 173.222 160.997C182.262 147.517 179 128.435 179 113C179 94.6474 183.922 68.2128 174.041 52.0001C158.369 26.2869 119.462 34 94 34C83.6138 34 72.0666 32.6225 62 35.6651C25.9193 46.5707 36 95.1893 36 124C36 138.458 34.4106 153.139 44.503 164.94C59.2627 182.199 86.7935 177 107 177z"/>
<path style="fill:#438293; stroke:none;" d="M146 34L146 35L149 35L146 34z"/>
<path style="fill:#67c2f9; stroke:none;" d="M71 35L71 36L142 36L119 35L71 35z"/>
<path style="fill:#1748c8; stroke:none;" d="M65 36L65 37L67 37L67 38C60.61 38.6587 55.247 41.1315 51 46L66 41.8076L83 40L83 39L70 38L70 37L80 37L65 36z"/>
<path style="fill:#2a6df9; stroke:none;" d="M70 37L70 38C100.068 46.1805 161.385 23.5784 172 66L177 64C170.79 39.136 149.831 36 128 36C108.652 36 89.2817 36.9607 70 37z"/>
<path style="fill:#537d93; stroke:none;" d="M57 37L58 38L57 37z"/>
<path style="fill:#103083; stroke:none;" d="M37 96L41 96C41.1125 76.4655 42.5455 63.0501 54 47L51 46L67 38C60.7293 35.9206 53.8427 40.6329 49.3084 44.6935C34.1792 58.242 37 77.6479 37 96z"/>
<path style="fill:#5c78b7; stroke:none;" d="M206 37L206 41L207 41L206 37z"/>
<path style="fill:#4594df; stroke:none;" d="M71 40L71 41L142 41L119 40L71 40z"/>
<path style="fill:#b0f2ff; stroke:none;" d="M69 170L69 169C34.0572 162.331 43 114.726 43 89C43 75.7801 42.2404 62.3688 52.1286 52.0629C62.5345 41.2174 75.1609 42 89 42L147 42C138.99 39.0065 127.516 41 119 41C95.2642 41 56.0931 32.7207 44.496 60C40.5584 69.2622 42 80.1564 42 90C42 114.237 32.5501 167.856 69 170z"/>
<path style="fill:#2048f7; stroke:none;" d="M68 42L68 43L71 43L71 44L67 45L73 53L94 64C95.5578 71.3438 113.288 69.9227 120 72.9032C134.961 79.5465 140.991 93.4867 141 109L144 108L145 111L154 106L155 106L156 106L160 108L164 100L164 105L165 105L166 99L167 99L170 115L171 115L171 64L170 64C168.912 74.5651 154.583 84.8738 146 90L148 88L148 87L144 87C142.215 80.3671 137.623 77.0893 131 76L131 72L120 70L120 66C114.389 65.2197 113.101 61.7677 108.913 58.6376C101.511 53.1048 93.6776 52.5008 90 43L96 43L68 42z"/>
<path style="fill:#2362ff; stroke:none;" d="M90 43C92.5722 52.8158 100.802 53.3913 108.099 58.6376C112.678 61.9293 113.875 65.5395 120 66L120 70L131 72L131 76C137.332 77.6868 141.444 80.8598 144 87L148 87L148 88L146 90C167.549 81.0542 179.958 55.9563 153 44.496C135.523 37.0662 108.57 42.028 90 43z"/>
<path style="fill:#ade9ff; stroke:none;" d="M147 42L147 43C158.447 45.8642 167.699 54.4988 170.821 66C173.378 75.4214 172 86.3124 172 96L172 151C175.184 142.48 173 130.065 173 121C173 96.5869 182.463 45.6557 147 42z"/>
<path style="fill:#1d47d1; stroke:none;" d="M57 50L62 56L80 64L80 67L89 74L111 70L111 69C104.903 69 96.4692 70.9036 94 64L73 53L67 45L71 44C65.4408 41.9711 59.0581 44.369 57 50z"/>
<path style="fill:#2d467e; stroke:none;" d="M191 47L194 46L191 47z"/>
<path style="fill:#163cb7; stroke:none;" d="M50 54L54 62C65.9951 65.4262 77.358 77.278 91 75L80 67L80 64L62 56L57 48L50 54z"/>
<path style="fill:#373c66; stroke:none;" d="M178 60L190 48L178 60z"/>
<path style="fill:#122b85; stroke:none;" d="M49 54C39.9021 73.1468 48.2779 81.1137 66 88L67 85L68 85L68 92L72 91L76 94C78.1443 86.9853 82.2994 81.547 88 77L68.0594 69.3831L54 62C53.7824 57.7624 53.0234 55.667 49 54z"/>
<path style="fill:#7fb1ec; stroke:none;" d="M24 62L23 66L27 65L27 63L26 62L24 62z"/>
<path style="fill:#5da2b2; stroke:none;" d="M36.3333 62.6667L36.6667 63.3333L36.3333 62.6667z"/>
<path style="fill:#4c5eff; stroke:none;" d="M173 66C178.967 92.4536 173 124.001 173 151L172 151L172 68L171 68L171 115L170 115L167 99L166 99L165 105L164 105L164 100L160 108L156 106L155 106L154 106L145 111L144 108L140 109C143.905 132.322 119.391 144.998 100 145C103.694 155.823 114.4 169.983 125 174.774C140.202 181.647 163.128 173.074 171.854 160C183.73 142.206 178 111.425 178 91C178 82.2983 179.293 72.4299 177 64L173 66z"/>
<path style="fill:#112468; stroke:none;" d="M44 66C44 76.2499 39.8738 98.153 45.9525 106.717C49.4404 111.631 64.1218 124.636 70.7945 121.378C77.2274 118.236 75.0644 96.0088 72 91L68 92L68 85L67 85L66 88C59.192 84.4937 50.3848 83.0776 46.4063 75.6671C44.788 72.6528 45.1774 69.142 44 66z"/>
<path style="fill:#1151b3; stroke:none;" d="M173 67L173 123L174 123C174 106.816 178.648 82.1139 173 67z"/>
<path style="fill:#3e7182; stroke:none;" d="M179 67L179 142L180 142L180 91L179 67z"/>
<path style="fill:#4e697e; stroke:none;" d="M35 68L35 143L36 143L36 92L35 68z"/>
<path style="fill:#447f91; stroke:none;" d="M43 69L43 142L44 142L44 93L43 69z"/>
<path style="fill:#8cfeff; stroke:none;" d="M75 146C81.5459 143.376 87.1402 136.776 94 135.29C107.804 132.3 118.477 139.04 130.684 127.505C166.557 93.6038 102.606 43.5331 78.3874 87.0001C69.9342 102.172 75 128.996 75 146z"/>
<path style="fill:#3f92fc; stroke:none;" d="M199.713 73.3507C197.699 74.5589 199.465 77.8665 201.589 76.6493C203.747 75.4121 201.807 72.0944 199.713 73.3507z"/>
<path style="fill:#b5d7fa; stroke:none;" d="M18.6667 79.3333L19.3333 79.6667L18.6667 79.3333z"/>
<path style="fill:#8393b5; stroke:none;" d="M18.6667 80.3333L19.3333 80.6667L18.6667 80.3333z"/>
<path style="fill:#041330; stroke:none;" d="M41 87L41 96L37 96C37 121.833 29.37 163.247 61 173.855C74.9868 178.546 92.4495 176 107 176L107 171L76 170.999C71.0795 170.982 66.5642 170.476 62 168.497C27.0134 153.329 50.8442 113.341 41 87z"/>
<path style="fill:#132c88; stroke:none;" d="M120 104L119 104L119 107L118 107L101 93L110 91C90.0243 83.9697 89.9199 124.26 111.997 115.892C114.157 115.073 116.038 113.713 117.479 111.903C119.39 109.502 119.78 106.947 120 104z"/>
<path style="fill:#1838a5; stroke:none;" d="M101 93C103.881 103.03 111.251 101.314 118 107L119 107L119 104L120 104L120 106C124.447 93.3653 109.849 90.2322 101 93z"/>
<path style="fill:#569dbb; stroke:none;" d="M74 98L74 133L76 147L74 98z"/>
<path style="fill:#5c9ddd; stroke:none;" d="M203 112L203 111C195.699 107.593 194.861 103.341 202 99C192.159 97.1799 192.548 111.216 203 112z"/>
<path style="fill:#85cdf5; stroke:none;" d="M201 99L201 100C205.104 103.39 205.791 106.056 202 110L202 111C208.875 108.442 207.283 101.123 201 99z"/>
<path style="fill:#3ebaff; stroke:none;" d="M8.21849 101.164C2.29302 104.61 8.21086 112.467 13.5876 108.846C18.6331 105.448 13.3919 98.1563 8.21849 101.164z"/>
<path style="fill:#0b102e; stroke:none;" d="M198.216 101.191C193.028 104.058 197.596 111.39 202.588 109.114C207.496 106.876 203.387 98.3345 198.216 101.191z"/>
<path style="fill:#213d65; stroke:none;" d="M205 103L205 107L206 107L205 103z"/>
<path style="fill:#293a68; stroke:none;" d="M16 104C19.9685 107.931 29.6778 106 35 106L35 105L16 104z"/>
<path style="fill:#09102c; stroke:none;" d="M44 104C44 125.982 37.3949 158.87 64 167.981C76.7861 172.36 95.5287 169 109 169L109 176L126 176L126 175C116.388 168.841 93.8758 148.213 98 135C89.2368 133.801 81.0316 142.595 74 147L74 120C63.1537 124.448 50.7094 111.829 44 104z"/>
<path style="fill:#313b6c; stroke:none;" d="M207 105L207 106L212 106L207 105z"/>
<path style="fill:#4c88be; stroke:none;" d="M9 110L9 111L13 111L9 110z"/>
<path style="fill:#13236e; stroke:none;" d="M140 110C135.79 124.33 125.043 134.443 110 136.624C105.292 137.307 100.725 135.616 96 136C98.7391 146.91 107.533 146.126 117 143.264C128.822 139.691 144.57 123.772 140 110z"/>
<path style="fill:#828caf; stroke:none;" d="M0.333333 124.667L0.666667 125.333L0.333333 124.667z"/>
<path style="fill:#48608c; stroke:none;" d="M201.333 128.667L201.667 129.333L201.333 128.667z"/>
<path style="fill:#aacbf6; stroke:none;" d="M202.333 128.667L202.667 129.333L202.333 128.667z"/>
<path style="fill:#6484ad; stroke:none;" d="M203.333 128.667L203.667 129.333L203.333 128.667z"/>
<path style="fill:#5194e3; stroke:none;" d="M23 136L23 138L26 138L26 136L23 136z"/>
<path style="fill:#5993c1; stroke:none;" d="M103 136L103 137L112 137L103 136z"/>
<path style="fill:#6594fe; stroke:none;" d="M211 140L171 195L176 193C180.254 204.934 190.3 185.906 195 183L200 188C203.344 183.77 209.219 179.75 211.283 174.804C214.324 167.514 213.735 147.319 211 140z"/>
<path style="fill:#3e7280; stroke:none;" d="M37 143L37 146L38 146L37 143z"/>
<path style="fill:#2c6674; stroke:none;" d="M42.3333 144.667L42.6667 145.333L42.3333 144.667z"/>
<path style="fill:#6693a8; stroke:none;" d="M3 145L3 146L6 146L3 145z"/>
<path style="fill:#9dfbff; stroke:none;" d="M2.74447 147.177C0.0127871 149.29 3.78342 152.736 6.25553 150.823C8.98721 148.71 5.21658 145.264 2.74447 147.177z"/>
<path style="fill:#738ee5; stroke:none;" d="M36 148L36 194L37 194C38.0582 182.305 40.807 158.578 36 148z"/>
<path style="fill:#0f1f5d; stroke:none;" d="M35 150C33.4269 158.268 24.7137 164.286 19 170L17 161C12.3891 161.217 8.5568 160.78 7 156L0 155L0 211L60 211L60 210L54 208L55 206C49.4486 200.722 52.271 196.507 56 191L47 190L49 187L36 194C36 181.09 39.5146 162.08 35 150z"/>
<path style="fill:#6a97b4; stroke:none;" d="M3 152L3 153L6 153L3 152z"/>
<path style="fill:#587c92; stroke:none;" d="M46 152L47 153L46 152z"/>
<path style="fill:#0c2579; stroke:none;" d="M37 153L37 192L38 192C38 181.439 41.6948 162.328 37 153z"/>
<path style="fill:#588696; stroke:none;" d="M46 155L47 156L46 155z"/>
<path style="fill:#0a1845; stroke:none;" d="M38 156L38 191L63 177L63 176C51.3117 171.935 46.2955 164.324 38 156z"/>
<path style="fill:#5c899c; stroke:none;" d="M48 158L49 159L48 158z"/>
<path style="fill:#437e8e; stroke:none;" d="M43 160L44 161L43 160z"/>
<path style="fill:#51778a; stroke:none;" d="M170 164L171 165L170 164z"/>
<path style="fill:#577a90; stroke:none;" d="M57 166L58 167L57 166z"/>
<path style="fill:#558295; stroke:none;" d="M60 166L61 167L60 166z"/>
<path style="fill:#577992; stroke:none;" d="M52 169L53 170L52 169z"/>
<path style="fill:#7494ab; stroke:none;" d="M67 170L67 171L72 170L67 170z"/>
<path style="fill:#3f5e7a; stroke:none;" d="M72 169L72 170L108 170L108 176L109 176L109 169L72 169z"/>
<path style="fill:#3275f7; stroke:none;" d="M18 172C2.56422 172.789 20.0011 187.247 18 172z"/>
<path style="fill:#2e4e67; stroke:none;" d="M66 175L66 176L70 176L66 175z"/>
<path style="fill:#5d78d3; stroke:none;" d="M38 191L38 192L66 177C57.8754 175.344 44.8065 186.851 38 191z"/>
<path style="fill:#4352eb; stroke:none;" d="M211 176C206.146 179.779 201.433 183.824 200 190C208.365 188.428 214.68 185.848 211 176z"/>
<path style="fill:#6ba6b4; stroke:none;" d="M68 177L68 178L107 178C96.1853 173.958 79.5446 177 68 177z"/>
<path style="fill:#67a5b2; stroke:none;" d="M108 177L108 178L127 178L108 177z"/>
<path style="fill:#65a4b3; stroke:none;" d="M129 177L129 178L145 178L129 177z"/>
<path style="fill:#578092; stroke:none;" d="M108 178L108 194L109 194L108 178z"/>
<path style="fill:#09102c; stroke:none;" d="M109 178L109 193L126 178L109 178z"/>
<path style="fill:#3579ff; stroke:none;" d="M176 193L151 203.74L96 210L96 211L153 211C160.638 211 171.808 213.052 178.99 210.283C187.183 207.123 200.233 191.012 195 183C188.987 185.53 181.821 203.277 176 193z"/>
<path style="fill:#232e88; stroke:none;" d="M180 211L212 211L212 187C200.505 190.879 186.952 201.085 180 211z"/>
<path style="fill:#8cb2c5; stroke:none;" d="M114 188L115 190L116 190L117 188L114 188z"/>
<path style="fill:#3346bf; stroke:none;" d="M199 188L188 203L207 190L207 189L199 188z"/>
<path style="fill:#acedff; stroke:none;" d="M55.1012 193.154C46.3245 197.941 54.1611 211.006 62.7024 205.714C70.1497 201.1 62.9036 188.898 55.1012 193.154z"/>
<path style="fill:#346e86; stroke:none;" d="M56 193L56 194L60 194L56 193z"/>
<path style="fill:#091a50; stroke:none;" d="M55.2167 195.154C48.6032 199.086 55.4034 208.481 61.7024 204.704C68.4267 200.671 61.6291 191.342 55.2167 195.154z"/>
<path style="fill:#304179; stroke:none;" d="M66 201L90 200C84.7991 198.056 70.0968 196.942 66 201z"/>
<path style="fill:#15479e; stroke:none;" d="M120 206L120 207L138 207L120 206z"/>
<path style="fill:#4d8faf; stroke:none;" d="M57 207L57 208L60 208L57 207z"/>
<path style="fill:#0e4f93; stroke:none;" d="M104.667 208.333L105.333 208.667L104.667 208.333z"/>
</svg>
